<svg version="1.1" id="Layer_1" xmlns="http://www.w3.org/2000/svg" xmlns:xlink="http://www.w3.org/1999/xlink" x="0px" y="0px"
	 style={{ width: "100%" }} viewBox="0 0 63 64" enable-background="new 0 0 520 520" xml:space="preserve">
<path fill="#010101" opacity="1.000000" stroke="none" 
	d="
M364.000000,521.000000 
	C242.695709,521.000000 121.891411,521.000000 1.043559,521.000000 
	C1.043559,347.737366 1.043559,174.474731 1.043559,1.106044 
	C174.220932,1.106044 347.441956,1.106044 520.831482,1.106044 
	C520.831482,174.333191 520.831482,347.666595 520.831482,521.000000 
	C468.808105,521.000000 416.654053,521.000000 364.000000,521.000000 
M284.489471,227.765915 
	C284.489471,227.765915 284.506744,227.805359 285.204437,227.624435 
	C292.018402,223.651947 298.896301,219.784409 305.629639,215.679657 
	C313.575012,210.836014 313.404480,202.012863 305.297272,197.362488 
	C285.993439,186.289642 266.667999,175.253998 247.302338,164.289780 
	C237.799820,158.909790 230.259232,163.324402 230.311646,174.254410 
	C230.416946,196.208466 230.615753,218.162323 230.860352,240.115326 
	C230.980103,250.861969 238.331757,255.040131 247.611115,249.639572 
	C255.820862,244.861526 263.927734,239.906708 272.749390,234.904358 
	C275.502960,233.209946 278.256531,231.515549 281.601807,229.706024 
	C282.551361,229.060898 283.500946,228.415756 284.489471,227.765915 
M237.500153,97.459793 
	C224.836197,97.460037 212.171432,97.367348 199.508438,97.477570 
	C158.137817,97.837662 125.157738,128.067245 122.986519,169.158157 
	C121.687195,193.748291 121.641777,218.507675 122.836159,243.103424 
	C124.834091,284.246246 154.176147,313.663208 195.281067,316.128082 
	C215.539139,317.342865 235.922623,316.558044 256.249023,316.517426 
	C280.572754,316.468811 304.934235,317.057007 329.210571,315.911255 
	C364.757263,314.233612 396.332397,282.640991 397.908752,247.097153 
	C399.052063,221.318588 398.392853,195.459808 398.503815,169.636658 
	C398.508759,168.488922 398.597168,166.857193 397.929596,166.279495 
	C395.702332,164.351990 393.102386,161.418900 390.732635,161.497757 
	C388.380798,161.576004 385.719086,164.520447 384.001007,166.813171 
	C383.000824,168.147949 383.478668,170.671478 383.476288,172.660339 
	C383.449860,194.823135 383.507751,216.986099 383.448456,239.148773 
	C383.354736,274.173370 357.003784,301.147552 322.070709,301.390228 
	C280.913147,301.676208 239.750916,301.651123 198.592957,301.397491 
	C165.635315,301.194427 139.145401,276.184357 137.866699,243.301315 
	C136.935043,219.342850 137.605545,195.321045 137.637405,171.327576 
	C137.640915,168.677887 137.951523,165.993057 138.441406,163.384964 
	C144.123642,133.133713 168.826553,112.664879 199.958862,112.563263 
	C231.286423,112.461014 262.614563,112.544563 293.942474,112.529968 
	C295.769958,112.529121 297.647614,112.618500 299.414581,112.248604 
	C303.358826,111.422920 305.521576,108.752983 305.401367,104.779572 
	C305.289581,101.084480 303.257050,98.490730 299.458496,97.794548 
	C297.675293,97.467728 295.815674,97.474632 293.990540,97.472565 
	C275.493744,97.451569 256.996948,97.459999 237.500153,97.459793 
M320.656616,410.341827 
	C319.593842,405.927277 317.079346,402.805542 312.485199,401.962799 
	C307.020172,400.960297 302.418915,402.504700 300.200317,406.210510 
	C296.210602,404.554688 292.752136,401.979462 289.321899,402.016571 
	C285.898743,402.053619 282.503937,404.707703 279.245972,406.148438 
	C279.198761,405.443542 279.092346,403.855133 278.982300,402.212646 
	C276.010956,402.212646 273.245453,402.212646 270.292908,402.212646 
	C270.292908,413.828400 270.292908,425.221252 270.292908,436.643005 
	C273.570038,436.643005 276.602386,436.643005 279.853241,436.643005 
	C279.853241,429.802490 279.849823,423.326599 279.854553,416.850739 
	C279.857422,412.902588 281.102478,409.743927 285.673004,409.823334 
	C290.131683,409.900757 290.850250,413.167511 290.830170,416.828705 
	C290.793945,423.434021 290.819946,430.039703 290.819946,436.668671 
	C294.188995,436.668671 297.061829,436.668671 300.110474,436.668671 
	C300.110474,429.679626 300.069519,423.030579 300.126495,416.382416 
	C300.158600,412.635864 301.458252,409.743774 305.823120,409.790009 
	C310.314911,409.837585 311.145172,412.810059 311.087799,416.593872 
	C310.985352,423.348236 311.058960,430.105255 311.058960,436.770813 
	C314.675049,436.770813 317.614685,436.770813 320.833344,436.770813 
	C320.833344,428.086487 320.833344,419.637177 320.656616,410.341827 
M155.235855,405.741699 
	C150.076447,411.573456 150.155029,418.567657 151.353027,425.530365 
	C152.303207,431.052765 155.400436,435.424377 161.143814,437.007263 
	C166.554001,438.498383 171.281250,437.269897 174.899460,431.566193 
	C175.085114,433.905029 175.195465,435.295258 175.300583,436.619537 
	C178.605408,436.619537 181.644760,436.619537 184.479950,436.619537 
	C184.479950,421.024200 184.479950,405.825439 184.479950,390.553650 
	C181.190613,390.553650 178.276428,390.553650 174.947754,390.553650 
	C174.947754,396.025604 174.947754,401.240540 174.947754,406.842468 
	C168.186691,400.325317 162.858780,399.982452 155.235855,405.741699 
M118.755013,421.287109 
	C122.210663,411.132904 125.666306,400.978729 129.231262,390.503326 
	C127.521744,390.408203 126.370277,390.462006 125.264557,390.262421 
	C120.183815,389.345215 117.579193,391.229492 116.290245,396.452545 
	C114.427734,403.999756 111.680260,411.328186 109.321442,418.753479 
	C108.664474,420.821564 108.046516,422.902008 107.410652,424.976776 
	C103.622116,416.057098 100.811752,407.403503 98.104355,398.717834 
	C95.382133,389.984619 95.426788,389.964783 86.426590,390.331360 
	C85.990784,390.349060 85.565498,390.624939 84.675041,390.947144 
	C89.989998,406.332672 95.265121,421.602905 100.481285,436.702484 
	C113.036774,437.741272 113.040031,437.742401 116.866295,426.725342 
	C117.410515,425.158356 117.905220,423.574188 118.755013,421.287109 
M223.715424,421.849701 
	C225.656235,412.079926 220.697754,403.682800 212.013870,402.033325 
	C201.486252,400.033630 193.400146,405.384857 191.359436,415.702026 
	C189.322968,425.997772 194.555588,435.167694 203.589096,437.133881 
	C213.819214,439.360504 221.922104,435.368835 223.655197,427.163666 
	C219.636688,426.751953 215.898239,425.945343 212.197662,429.297882 
	C210.759094,430.601105 206.581741,430.125336 204.407471,429.000092 
	C202.478760,428.001923 201.596527,424.981659 200.093460,422.602448 
	C201.568634,422.154846 201.727707,422.064850 201.887146,422.064209 
	C208.875229,422.036713 215.863358,422.017120 223.715424,421.849701 
M396.055176,434.570587 
	C406.264526,441.546692 422.452118,436.034424 421.685150,426.249298 
	C418.564728,426.899811 415.516296,427.562012 412.456299,428.165527 
	C409.536804,428.741302 406.233185,430.331390 403.786987,429.485168 
	C401.490448,428.690674 400.094574,425.292847 398.302368,423.040558 
	C398.662903,422.620361 399.023438,422.200134 399.383972,421.779907 
	C407.147675,421.779907 414.911377,421.779907 423.091888,421.779907 
	C422.752838,418.850342 422.677582,416.353394 422.146362,413.957581 
	C420.574524,406.868195 415.641235,402.499939 408.749542,401.836304 
	C400.625671,401.054016 394.363190,404.208344 391.281555,410.634735 
	C387.645844,418.216553 389.409729,427.989410 396.055176,434.570587 
M333.081512,412.072235 
	C334.761505,411.556824 336.424225,410.973297 338.125641,410.542572 
	C340.457275,409.952271 342.860870,408.970612 345.149078,409.162933 
	C346.335419,409.262604 347.840698,411.402435 348.209717,412.870056 
	C348.387726,413.577850 346.421265,415.449646 345.165039,415.769257 
	C342.121490,416.543640 338.879120,416.506409 335.800018,417.177704 
	C330.165192,418.406219 327.273193,421.614685 327.007996,426.513275 
	C326.783997,430.650574 328.010193,434.166199 331.948273,436.053406 
	C336.933411,438.442322 341.880798,438.529205 346.491882,434.993408 
	C347.214752,434.439117 347.892578,433.826141 348.787170,433.076019 
	C348.967987,434.635559 349.095154,435.732452 349.216522,436.779236 
	C352.253296,436.779236 355.025452,436.779236 358.176208,436.779236 
	C358.176208,429.269440 358.215973,421.981964 358.165253,414.695129 
	C358.112396,407.102509 354.571167,403.101349 347.027588,401.941833 
	C338.202606,400.585419 329.255219,404.122772 328.558502,410.980225 
	C328.977661,411.181152 329.398560,411.473450 329.862915,411.585358 
	C330.668243,411.779419 331.500519,411.861877 333.081512,412.072235 
M260.006256,407.594513 
	C254.460770,401.321503 247.512512,400.388550 240.008575,402.812653 
	C232.703125,405.172668 230.084946,411.122467 229.417099,418.207336 
	C228.450928,428.457092 234.730682,436.563171 244.429306,437.657593 
	C254.580811,438.803101 262.554199,432.950867 263.374451,422.460602 
	C263.737885,417.812958 261.494202,412.961487 260.006256,407.594513 
M371.423920,435.092529 
	C375.695465,438.256622 380.229523,437.853424 385.175964,436.459534 
	C384.623688,433.962067 384.165527,431.890228 383.707367,429.818390 
	C383.397491,430.110077 383.087616,430.401733 382.777710,430.693390 
	C381.184174,429.263916 378.377960,427.958801 378.216370,426.382507 
	C377.650696,420.864563 377.997101,415.253082 377.997101,409.621948 
	C380.452606,409.381836 382.370300,409.194336 384.289612,409.006653 
	C384.289612,406.568481 384.289612,404.467773 384.289612,402.123199 
	C382.145020,402.026611 380.223236,401.940063 378.010010,401.840393 
	C378.010010,399.129761 378.010010,396.686981 378.010010,394.049194 
	C374.600342,394.049194 371.507080,394.049194 368.077881,394.049194 
	C368.077881,396.729065 368.077881,399.172272 368.077881,401.654633 
	C366.383759,401.926422 365.008087,402.147125 363.775787,402.344818 
	C363.775787,404.810211 363.775787,406.886658 363.775787,409.002899 
	C365.326965,409.278076 366.586548,409.501526 368.144165,409.777802 
	C368.144165,415.226654 367.836456,420.546295 368.263885,425.806183 
	C368.505554,428.779724 369.955383,431.655060 371.423920,435.092529 
M134.836960,402.653290 
	C134.836960,413.934448 134.836960,425.215607 134.836960,436.666565 
	C138.081970,436.666565 141.122223,436.666565 144.125305,436.666565 
	C144.125305,425.054199 144.125305,413.774719 144.125305,402.065308 
	C141.180145,402.065308 138.397736,402.065308 134.836960,402.653290 
M144.454453,391.028687 
	C142.976913,387.898956 140.247467,386.982605 137.493469,388.403534 
	C135.973114,389.187958 134.167099,391.954163 134.534729,393.244324 
	C135.036011,395.003540 137.361771,397.215088 139.130356,397.436707 
	C142.713470,397.885681 144.991547,395.736877 144.454453,391.028687 
z"/>
<path fill="#775CD9" opacity="1.000000" stroke="none" 
	d="
M238.000153,97.459984 
	C256.996948,97.459999 275.493744,97.451569 293.990540,97.472565 
	C295.815674,97.474632 297.675293,97.467728 299.458496,97.794548 
	C303.257050,98.490730 305.289581,101.084480 305.401367,104.779572 
	C305.521576,108.752983 303.358826,111.422920 299.414581,112.248604 
	C297.647614,112.618500 295.769958,112.529121 293.942474,112.529968 
	C262.614563,112.544563 231.286423,112.461014 199.958862,112.563263 
	C168.826553,112.664879 144.123642,133.133713 138.441406,163.384964 
	C137.951523,165.993057 137.640915,168.677887 137.637405,171.327576 
	C137.605545,195.321045 136.935043,219.342850 137.866699,243.301315 
	C139.145401,276.184357 165.635315,301.194427 198.592957,301.397491 
	C239.750916,301.651123 280.913147,301.676208 322.070709,301.390228 
	C357.003784,301.147552 383.354736,274.173370 383.448456,239.148773 
	C383.507751,216.986099 383.449860,194.823135 383.476288,172.660339 
	C383.478668,170.671478 383.000824,168.147949 384.001007,166.813171 
	C385.719086,164.520447 388.380798,161.576004 390.732635,161.497757 
	C393.102386,161.418900 395.702332,164.351990 397.929596,166.279495 
	C398.597168,166.857193 398.508759,168.488922 398.503815,169.636658 
	C398.392853,195.459808 399.052063,221.318588 397.908752,247.097153 
	C396.332397,282.640991 364.757263,314.233612 329.210571,315.911255 
	C304.934235,317.057007 280.572754,316.468811 256.249023,316.517426 
	C235.922623,316.558044 215.539139,317.342865 195.281067,316.128082 
	C154.176147,313.663208 124.834091,284.246246 122.836159,243.103424 
	C121.641777,218.507675 121.687195,193.748291 122.986519,169.158157 
	C125.157738,128.067245 158.137817,97.837662 199.508438,97.477570 
	C212.171432,97.367348 224.836197,97.460037 238.000153,97.459984 
z"/>
<path fill="#724CDD" opacity="1.000000" stroke="none" 
	d="
M272.080017,235.029938 
	C263.927734,239.906708 255.820862,244.861526 247.611115,249.639572 
	C238.331757,255.040131 230.980103,250.861969 230.860352,240.115326 
	C230.615753,218.162323 230.416946,196.208466 230.311646,174.254410 
	C230.259232,163.324402 237.799820,158.909790 247.302338,164.289780 
	C266.667999,175.253998 285.993439,186.289642 305.297272,197.362488 
	C313.404480,202.012863 313.575012,210.836014 305.629639,215.679657 
	C298.896301,219.784409 292.018402,223.651947 284.780762,227.334488 
	C285.349915,225.830521 286.234680,224.503830 287.358276,223.426147 
	C289.627686,221.249466 292.231873,219.393280 294.329254,217.071762 
	C298.524536,212.428192 298.008331,203.978867 292.777344,200.647186 
	C284.811432,195.573669 276.509003,190.965881 268.050598,186.761566 
	C264.993835,185.242157 260.801361,184.529526 258.497986,189.327927 
	C250.328690,185.068497 247.724564,186.613647 247.711426,195.496124 
	C247.699677,203.427780 247.674118,211.359711 247.725174,219.291061 
	C247.762268,225.053436 248.887146,226.006882 254.932495,226.081818 
	C255.916199,232.429810 260.417114,235.663483 266.456818,234.939697 
	C268.301117,234.718674 270.203979,234.986160 272.080017,235.029938 
z"/>
<path fill="#E0E5BD" opacity="1.000000" stroke="none" 
	d="
M320.744995,410.764832 
	C320.833344,419.637177 320.833344,428.086487 320.833344,436.770813 
	C317.614685,436.770813 314.675049,436.770813 311.058960,436.770813 
	C311.058960,430.105255 310.985352,423.348236 311.087799,416.593872 
	C311.145172,412.810059 310.314911,409.837585 305.823120,409.790009 
	C301.458252,409.743774 300.158600,412.635864 300.126495,416.382416 
	C300.069519,423.030579 300.110474,429.679626 300.110474,436.668671 
	C297.061829,436.668671 294.188995,436.668671 290.819946,436.668671 
	C290.819946,430.039703 290.793945,423.434021 290.830170,416.828705 
	C290.850250,413.167511 290.131683,409.900757 285.673004,409.823334 
	C281.102478,409.743927 279.857422,412.902588 279.854553,416.850739 
	C279.849823,423.326599 279.853241,429.802490 279.853241,436.643005 
	C276.602386,436.643005 273.570038,436.643005 270.292908,436.643005 
	C270.292908,425.221252 270.292908,413.828400 270.292908,402.212646 
	C273.245453,402.212646 276.010956,402.212646 278.982300,402.212646 
	C279.092346,403.855133 279.198761,405.443542 279.245972,406.148438 
	C282.503937,404.707703 285.898743,402.053619 289.321899,402.016571 
	C292.752136,401.979462 296.210602,404.554688 300.200317,406.210510 
	C302.418915,402.504700 307.020172,400.960297 312.485199,401.962799 
	C317.079346,402.805542 319.593842,405.927277 320.744995,410.764832 
z"/>
<path fill="#DEE3BB" opacity="1.000000" stroke="none" 
	d="
M155.499161,405.484955 
	C162.858780,399.982452 168.186691,400.325317 174.947754,406.842468 
	C174.947754,401.240540 174.947754,396.025604 174.947754,390.553650 
	C178.276428,390.553650 181.190613,390.553650 184.479950,390.553650 
	C184.479950,405.825439 184.479950,421.024200 184.479950,436.619537 
	C181.644760,436.619537 178.605408,436.619537 175.300583,436.619537 
	C175.195465,435.295258 175.085114,433.905029 174.899460,431.566193 
	C171.281250,437.269897 166.554001,438.498383 161.143814,437.007263 
	C155.400436,435.424377 152.303207,431.052765 151.353027,425.530365 
	C150.155029,418.567657 150.076447,411.573456 155.499161,405.484955 
M174.980728,416.079834 
	C174.232254,412.560394 172.525604,409.394806 168.669601,409.542450 
	C166.431046,409.628143 162.680588,411.417725 162.377533,412.978027 
	C161.538651,417.297058 161.694626,421.977051 162.448303,426.343292 
	C162.699860,427.800537 165.998764,429.741547 167.814789,429.651428 
	C169.868134,429.549561 172.755630,427.850006 173.597061,426.055786 
	C174.853012,423.377777 174.636215,420.009033 174.980728,416.079834 
z"/>
<path fill="#DEE3BB" opacity="1.000000" stroke="none" 
	d="
M118.588928,421.642517 
	C117.905220,423.574188 117.410515,425.158356 116.866295,426.725342 
	C113.040031,437.742401 113.036774,437.741272 100.481285,436.702484 
	C95.265121,421.602905 89.989998,406.332672 84.675041,390.947144 
	C85.565498,390.624939 85.990784,390.349060 86.426590,390.331360 
	C95.426788,389.964783 95.382133,389.984619 98.104355,398.717834 
	C100.811752,407.403503 103.622116,416.057098 107.410652,424.976776 
	C108.046516,422.902008 108.664474,420.821564 109.321442,418.753479 
	C111.680260,411.328186 114.427734,403.999756 116.290245,396.452545 
	C117.579193,391.229492 120.183815,389.345215 125.264557,390.262421 
	C126.370277,390.462006 127.521744,390.408203 129.231262,390.503326 
	C125.666306,400.978729 122.210663,411.132904 118.588928,421.642517 
z"/>
<path fill="#E0E4BC" opacity="1.000000" stroke="none" 
	d="
M223.283447,421.923157 
	C215.863358,422.017120 208.875229,422.036713 201.887146,422.064209 
	C201.727707,422.064850 201.568634,422.154846 200.093460,422.602448 
	C201.596527,424.981659 202.478760,428.001923 204.407471,429.000092 
	C206.581741,430.125336 210.759094,430.601105 212.197662,429.297882 
	C215.898239,425.945343 219.636688,426.751953 223.655197,427.163666 
	C221.922104,435.368835 213.819214,439.360504 203.589096,437.133881 
	C194.555588,435.167694 189.322968,425.997772 191.359436,415.702026 
	C193.400146,405.384857 201.486252,400.033630 212.013870,402.033325 
	C220.697754,403.682800 225.656235,412.079926 223.283447,421.923157 
M202.961060,416.003021 
	C206.894058,416.003021 210.827042,416.003021 215.605255,416.003021 
	C214.491287,413.817413 214.021729,411.309021 212.855087,410.926453 
	C210.144608,410.037720 206.917053,409.461609 204.248734,410.138092 
	C202.364059,410.615875 199.656677,412.870514 202.961060,416.003021 
z"/>
<path fill="#E0E5BD" opacity="1.000000" stroke="none" 
	d="
M395.782745,434.317749 
	C389.409729,427.989410 387.645844,418.216553 391.281555,410.634735 
	C394.363190,404.208344 400.625671,401.054016 408.749542,401.836304 
	C415.641235,402.499939 420.574524,406.868195 422.146362,413.957581 
	C422.677582,416.353394 422.752838,418.850342 423.091888,421.779907 
	C414.911377,421.779907 407.147675,421.779907 399.383972,421.779907 
	C399.023438,422.200134 398.662903,422.620361 398.302368,423.040558 
	C400.094574,425.292847 401.490448,428.690674 403.786987,429.485168 
	C406.233185,430.331390 409.536804,428.741302 412.456299,428.165527 
	C415.516296,427.562012 418.564728,426.899811 421.685150,426.249298 
	C422.452118,436.034424 406.264526,441.546692 395.782745,434.317749 
M410.243835,416.003021 
	C413.103485,416.323517 413.826569,415.219666 412.577057,412.636536 
	C411.048645,409.476929 408.429260,408.536102 405.198944,408.994904 
	C401.368652,409.538940 399.681366,412.035919 399.225433,416.003174 
	C402.748108,416.003174 406.032501,416.003174 410.243835,416.003021 
z"/>
<path fill="#E0E5BD" opacity="1.000000" stroke="none" 
	d="
M332.701477,412.031677 
	C331.500519,411.861877 330.668243,411.779419 329.862915,411.585358 
	C329.398560,411.473450 328.977661,411.181152 328.558502,410.980225 
	C329.255219,404.122772 338.202606,400.585419 347.027588,401.941833 
	C354.571167,403.101349 358.112396,407.102509 358.165253,414.695129 
	C358.215973,421.981964 358.176208,429.269440 358.176208,436.779236 
	C355.025452,436.779236 352.253296,436.779236 349.216522,436.779236 
	C349.095154,435.732452 348.967987,434.635559 348.787170,433.076019 
	C347.892578,433.826141 347.214752,434.439117 346.491882,434.993408 
	C341.880798,438.529205 336.933411,438.442322 331.948273,436.053406 
	C328.010193,434.166199 326.783997,430.650574 327.007996,426.513275 
	C327.273193,421.614685 330.165192,418.406219 335.800018,417.177704 
	C338.879120,416.506409 342.121490,416.543640 345.165039,415.769257 
	C346.421265,415.449646 348.387726,413.577850 348.209717,412.870056 
	C347.840698,411.402435 346.335419,409.262604 345.149078,409.162933 
	C342.860870,408.970612 340.457275,409.952271 338.125641,410.542572 
	C336.424225,410.973297 334.761505,411.556824 332.701477,412.031677 
M343.072479,430.893677 
	C347.963776,429.450562 349.286530,426.071442 348.483765,421.236298 
	C345.953339,421.655090 343.450989,421.544373 341.509979,422.534271 
	C339.461975,423.578796 336.635681,425.561951 336.485413,427.333221 
	C336.201111,430.684723 339.484955,431.027222 343.072479,430.893677 
z"/>
<path fill="#DFE4BC" opacity="1.000000" stroke="none" 
	d="
M260.220123,407.898529 
	C261.494202,412.961487 263.737885,417.812958 263.374451,422.460602 
	C262.554199,432.950867 254.580811,438.803101 244.429306,437.657593 
	C234.730682,436.563171 228.450928,428.457092 229.417099,418.207336 
	C230.084946,411.122467 232.703125,405.172668 240.008575,402.812653 
	C247.512512,400.388550 254.460770,401.321503 260.220123,407.898529 
M252.942581,413.891754 
	C251.536331,410.694458 249.258972,408.720703 245.601379,409.280151 
	C241.989120,409.832672 240.085602,412.377991 239.807053,415.786194 
	C239.556519,418.851532 239.154724,422.330994 240.326492,424.954865 
	C241.311890,427.161346 244.386810,429.558075 246.683182,429.714081 
	C248.657043,429.848145 251.994339,427.314484 252.662750,425.281311 
	C253.729187,422.037354 253.081528,418.229858 252.942581,413.891754 
z"/>
<path fill="#DCE1BA" opacity="1.000000" stroke="none" 
	d="
M371.142456,434.833588 
	C369.955383,431.655060 368.505554,428.779724 368.263885,425.806183 
	C367.836456,420.546295 368.144165,415.226654 368.144165,409.777802 
	C366.586548,409.501526 365.326965,409.278076 363.775787,409.002899 
	C363.775787,406.886658 363.775787,404.810211 363.775787,402.344818 
	C365.008087,402.147125 366.383759,401.926422 368.077881,401.654633 
	C368.077881,399.172272 368.077881,396.729065 368.077881,394.049194 
	C371.507080,394.049194 374.600342,394.049194 378.010010,394.049194 
	C378.010010,396.686981 378.010010,399.129761 378.010010,401.840393 
	C380.223236,401.940063 382.145020,402.026611 384.289612,402.123199 
	C384.289612,404.467773 384.289612,406.568481 384.289612,409.006653 
	C382.370300,409.194336 380.452606,409.381836 377.997101,409.621948 
	C377.997101,415.253082 377.650696,420.864563 378.216370,426.382507 
	C378.377960,427.958801 381.184174,429.263916 382.777710,430.693390 
	C383.087616,430.401733 383.397491,430.110077 383.707367,429.818390 
	C384.165527,431.890228 384.623688,433.962067 385.175964,436.459534 
	C380.229523,437.853424 375.695465,438.256622 371.142456,434.833588 
z"/>
<path fill="#6D49D3" opacity="1.000000" stroke="none" 
	d="
M258.881653,189.355927 
	C260.801361,184.529526 264.993835,185.242157 268.050598,186.761566 
	C276.509003,190.965881 284.811432,195.573669 292.777344,200.647186 
	C298.008331,203.978867 298.524536,212.428192 294.329254,217.071762 
	C292.231873,219.393280 289.627686,221.249466 287.358276,223.426147 
	C286.234680,224.503830 285.349915,225.830521 284.431885,227.424957 
	C284.506744,227.805359 284.489471,227.765915 284.120056,227.564026 
	C282.837128,228.181793 281.923615,229.001465 281.010101,229.821136 
	C278.256531,231.515549 275.502960,233.209946 272.414703,234.967148 
	C270.203979,234.986160 268.301117,234.718674 266.456818,234.939697 
	C260.417114,235.663483 255.916199,232.429810 255.139862,225.848328 
	C256.569427,224.581192 257.819702,223.949249 259.053864,223.714951 
	C259.185669,230.846375 263.278870,233.397842 269.763489,229.964722 
	C276.340942,226.482452 282.727325,222.472626 288.659058,217.982681 
	C294.971466,213.204605 294.598572,205.973099 287.869934,201.399673 
	C281.997803,197.408417 275.627472,194.121445 269.312378,190.840637 
	C268.338074,190.334473 266.478546,191.532211 264.683380,191.985855 
	C264.109253,192.065689 263.880188,192.101608 263.350220,192.052155 
	C261.660095,191.096466 260.270874,190.226196 258.881653,189.355927 
z"/>
<path fill="#E5EAC1" opacity="1.000000" stroke="none" 
	d="
M135.226151,402.359314 
	C138.397736,402.065308 141.180145,402.065308 144.125305,402.065308 
	C144.125305,413.774719 144.125305,425.054199 144.125305,436.666565 
	C141.122223,436.666565 138.081970,436.666565 134.836960,436.666565 
	C134.836960,425.215607 134.836960,413.934448 135.226151,402.359314 
z"/>
<path fill="#D5DAB4" opacity="1.000000" stroke="none" 
	d="
M144.601334,391.383118 
	C144.991547,395.736877 142.713470,397.885681 139.130356,397.436707 
	C137.361771,397.215088 135.036011,395.003540 134.534729,393.244324 
	C134.167099,391.954163 135.973114,389.187958 137.493469,388.403534 
	C140.247467,386.982605 142.976913,387.898956 144.601334,391.383118 
z"/>
<path fill="#724CDD" opacity="1.000000" stroke="none" 
	d="
M281.305969,229.763580 
	C281.923615,229.001465 282.837128,228.181793 284.100586,227.566376 
	C283.500946,228.415756 282.551361,229.060898 281.305969,229.763580 
z"/>
<path fill="#FBF9FE" opacity="1.000000" stroke="none" 
	d="
M258.497986,189.327927 
	C260.270874,190.226196 261.660095,191.096466 263.541626,192.325104 
	C264.641876,192.941727 265.249756,193.200027 266.026123,193.755096 
	C271.159241,197.028458 276.123932,200.005005 281.093750,203.390411 
	C280.739594,205.847977 280.380280,207.896713 279.694183,209.988708 
	C278.815613,210.656174 278.263855,211.280380 277.360413,211.925735 
	C272.675354,214.695541 268.341919,217.444229 263.749023,220.192139 
	C263.331451,220.473770 263.173370,220.756165 262.737915,221.125641 
	C261.996063,221.541321 261.531555,221.869904 260.755737,222.200089 
	C259.986298,222.573578 259.528137,222.945435 259.069977,223.317291 
	C257.819702,223.949249 256.569427,224.581192 255.111801,225.446640 
	C248.887146,226.006882 247.762268,225.053436 247.725174,219.291061 
	C247.674118,211.359711 247.699677,203.427780 247.711426,195.496124 
	C247.724564,186.613647 250.328690,185.068497 258.497986,189.327927 
z"/>
<path fill="#060705" opacity="1.000000" stroke="none" 
	d="
M175.013367,416.507019 
	C174.636215,420.009033 174.853012,423.377777 173.597061,426.055786 
	C172.755630,427.850006 169.868134,429.549561 167.814789,429.651428 
	C165.998764,429.741547 162.699860,427.800537 162.448303,426.343292 
	C161.694626,421.977051 161.538651,417.297058 162.377533,412.978027 
	C162.680588,411.417725 166.431046,409.628143 168.669601,409.542450 
	C172.525604,409.394806 174.232254,412.560394 175.013367,416.507019 
z"/>
<path fill="#080806" opacity="1.000000" stroke="none" 
	d="
M202.518127,415.993042 
	C199.656677,412.870514 202.364059,410.615875 204.248734,410.138092 
	C206.917053,409.461609 210.144608,410.037720 212.855087,410.926453 
	C214.021729,411.309021 214.491287,413.817413 215.605255,416.003021 
	C210.827042,416.003021 206.894058,416.003021 202.518127,415.993042 
z"/>
<path fill="#070706" opacity="1.000000" stroke="none" 
	d="
M409.780334,416.003113 
	C406.032501,416.003174 402.748108,416.003174 399.225433,416.003174 
	C399.681366,412.035919 401.368652,409.538940 405.198944,408.994904 
	C408.429260,408.536102 411.048645,409.476929 412.577057,412.636536 
	C413.826569,415.219666 413.103485,416.323517 409.780334,416.003113 
z"/>
<path fill="#0F100D" opacity="1.000000" stroke="none" 
	d="
M342.676514,430.931152 
	C339.484955,431.027222 336.201111,430.684723 336.485413,427.333221 
	C336.635681,425.561951 339.461975,423.578796 341.509979,422.534271 
	C343.450989,421.544373 345.953339,421.655090 348.483765,421.236298 
	C349.286530,426.071442 347.963776,429.450562 342.676514,430.931152 
z"/>
<path fill="#090908" opacity="1.000000" stroke="none" 
	d="
M253.050613,414.276184 
	C253.081528,418.229858 253.729187,422.037354 252.662750,425.281311 
	C251.994339,427.314484 248.657043,429.848145 246.683182,429.714081 
	C244.386810,429.558075 241.311890,427.161346 240.326492,424.954865 
	C239.154724,422.330994 239.556519,418.851532 239.807053,415.786194 
	C240.085602,412.377991 241.989120,409.832672 245.601379,409.280151 
	C249.258972,408.720703 251.536331,410.694458 253.050613,414.276184 
z"/>
<path fill="#6846C7" opacity="1.000000" stroke="none" 
	d="
M281.088593,202.981567 
	C276.123932,200.005005 271.159241,197.028458 265.970551,193.462250 
	C265.507141,192.562378 265.267792,192.252167 265.028412,191.941956 
	C266.478546,191.532211 268.338074,190.334473 269.312378,190.840637 
	C275.627472,194.121445 281.997803,197.408417 287.869934,201.399673 
	C294.598572,205.973099 294.971466,213.204605 288.659058,217.982681 
	C282.727325,222.472626 276.340942,226.482452 269.763489,229.964722 
	C263.278870,233.397842 259.185669,230.846375 259.053864,223.714935 
	C259.528137,222.945435 259.986298,222.573578 260.754333,222.578369 
	C262.535645,224.601776 263.886749,226.389099 265.549622,227.812164 
	C266.068756,228.256454 267.643616,228.047592 268.371887,227.576309 
	C274.866638,223.373383 281.457825,219.281326 287.632812,214.640610 
	C290.233185,212.686340 291.176392,209.330597 288.745605,206.241745 
	C286.838684,203.818558 285.002747,200.852249 281.088593,202.981567 
z"/>
<path fill="#724CDD" opacity="1.000000" stroke="none" 
	d="
M264.683380,191.985855 
	C265.267792,192.252167 265.507141,192.562378 265.802094,193.165451 
	C265.249756,193.200027 264.641876,192.941727 263.842529,192.410492 
	C263.880188,192.101608 264.109253,192.065689 264.683380,191.985855 
z"/>
<path fill="#5E3FB4" opacity="1.000000" stroke="none" 
	d="
M281.093750,203.390411 
	C285.002747,200.852249 286.838684,203.818558 288.745605,206.241745 
	C291.176392,209.330597 290.233185,212.686340 287.632812,214.640610 
	C281.457825,219.281326 274.866638,223.373383 268.371887,227.576309 
	C267.643616,228.047592 266.068756,228.256454 265.549622,227.812164 
	C263.886749,226.389099 262.535645,224.601776 261.065613,222.576752 
	C261.531555,221.869904 261.996063,221.541321 262.942810,221.034882 
	C263.685028,220.693176 263.879517,220.471802 264.008514,220.192917 
	C268.341919,217.444229 272.675354,214.695541 277.706177,211.911469 
	C278.942688,211.232544 279.481842,210.588989 280.020966,209.945435 
	C280.380280,207.896713 280.739594,205.847977 281.093750,203.390411 
z"/>
<path fill="#6846C7" opacity="1.000000" stroke="none" 
	d="
M279.694183,209.988708 
	C279.481842,210.588989 278.942688,211.232544 278.057831,211.890350 
	C278.263855,211.280380 278.815613,210.656174 279.694183,209.988708 
z"/>
<path fill="#6846C7" opacity="1.000000" stroke="none" 
	d="
M263.749023,220.192139 
	C263.879517,220.471802 263.685028,220.693176 263.220154,220.947800 
	C263.173370,220.756165 263.331451,220.473770 263.749023,220.192139 
z"/>
</svg>